<svg width="276" height="164" viewBox="0 0 276 164" fill="none" xmlns="http://www.w3.org/2000/svg">
<g id="Group 2">
<g id="Group">
<path id="Path" d="M12.8767 96.459L22.4595 91.4295C23.6244 90.8181 24.9678 90.7316 26.1945 91.1876C26.1945 91.1876 69.8691 113.208 76.3132 109.826C82.7577 106.444 39.485 131.472 39.485 131.472L12.8767 96.459Z" fill="#2196F3"/>
<path id="Path_2" d="M79.7675 107.294L78.3024 105.416L78.6912 105.212C78.9118 105.096 79.1725 105.11 79.381 105.251L81.2549 106.513L79.7675 107.294Z" fill="#F7F7F7"/>
<path id="Path_3" d="M117.691 87.3899L115.677 84.8071L116.212 84.5263C116.515 84.367 116.873 84.3881 117.16 84.5812L119.736 86.3166L117.691 87.3899Z" fill="#B7B7B7"/>
<path id="Path_4" d="M214.605 36.8563L212.773 34.5085L213.259 34.2535C213.535 34.1086 213.861 34.1268 214.121 34.3025L216.463 35.8807L214.605 36.8563Z" fill="#F7F7F7"/>
<path id="Path_5" d="M156.359 67.0956C156.493 67.391 156.934 67.4554 157.344 67.24C157.755 67.0243 157.98 66.6106 157.846 66.3152C157.712 66.0198 157.271 65.9553 156.86 66.171C156.449 66.3864 156.225 66.8002 156.359 67.0956Z" fill="#EE5252"/>
<path id="Path_6" d="M141.238 75.0318C141.439 75.4746 142.601 75.3093 143.833 74.6628C145.065 74.016 145.9 73.1329 145.7 72.6901C145.499 72.2473 144.338 72.412 143.106 73.0588C141.874 73.7052 141.037 74.589 141.238 75.0318Z" fill="#E4E4E4"/>
<path id="Path_7" d="M128.598 81.6658C128.799 82.1086 129.96 81.9439 131.192 81.2974C132.424 80.6506 133.26 79.7669 133.06 79.3241C132.859 78.8813 131.697 79.0466 130.465 79.6934C129.233 80.3398 128.397 81.223 128.598 81.6658Z" fill="#E4E4E4"/>
<path id="Path_8" d="M36.4954 132.322L79.0238 107.684L112.734 89.9914L156.359 67.095L216.463 35.8805C234.062 26.6441 244.246 33.5432 244.246 33.5432C256.474 32.0894 259.504 38.7731 250.426 47.1775C245.049 52.4119 238.552 56.6976 231.191 60.2511L190.184 81.7732C186.763 84.7257 176.693 90.8398 164.498 97.2401C152.304 103.64 141.627 108.415 137.358 109.499L115.685 120.874C85.9526 132.681 57.3865 140.916 30.475 144.085L28.4151 139.541C30.7886 135.978 33.5211 133.883 36.4954 132.322Z" fill="#F7F7F7"/>
<path id="Shape" fill-rule="evenodd" clip-rule="evenodd" d="M188.251 61.0468L188.201 60.9317C188.087 60.6658 188.214 60.3299 188.485 60.1799L191.423 58.5549L196.8 71.0741L193.372 72.9703L193.116 72.374C192.303 73.5321 191.213 74.4778 189.885 75.1066C186.769 76.5816 183.254 75.6991 181.531 72.9993C179.215 69.3735 180.875 64.189 184.824 62.0052C185.944 61.3859 187.111 61.0816 188.251 61.0468ZM184.754 70.6487C185.507 71.7796 186.965 72.2202 188.328 71.7304C190.499 70.9501 191.583 68.3627 190.56 66.4582C189.811 65.0617 188.077 64.5371 186.537 65.2416C184.437 66.2014 183.553 68.8487 184.754 70.6487Z" fill="#F7F7F7"/>
<path id="Path_9" d="M190.734 54.0271L190.876 54.341L198.117 70.3154L198.347 70.8226L201.702 69.0617L201.472 68.5545L194.231 52.5802L193.859 51.7584L190.971 53.2745C190.713 53.4095 190.607 53.7468 190.734 54.0271Z" fill="#F7F7F7"/>
<path id="Path_10" d="M195.932 51.2988L196.075 51.6128L203.315 67.5871L203.545 68.0943L206.9 66.3334L206.67 65.8262L199.43 49.8519L199.057 49.0302L196.169 50.5462C195.911 50.6815 195.805 51.0185 195.932 51.2988Z" fill="#F7F7F7"/>
<path id="Shape_2" fill-rule="evenodd" clip-rule="evenodd" d="M209.382 48.7032C212.656 47.2713 216.271 48.3641 217.912 51.281C220.128 55.2232 218.08 60.6684 213.653 62.6019C210.378 64.0329 206.763 62.9391 205.125 60.0213C202.912 56.0798 204.959 50.6379 209.382 48.7032ZM213.199 58.7081C214.705 57.709 215.444 55.7455 214.92 54.1336C214.232 52.0153 211.817 51.2851 209.839 52.5964C208.334 53.5943 207.595 55.5578 208.118 57.1698C208.805 59.2893 211.221 60.0208 213.199 58.7081Z" fill="#F7F7F7"/>
<path id="Path_11" d="M173.85 62.8885L173.62 62.3807L170.732 63.8967C170.474 64.032 170.368 64.369 170.495 64.6493L171.536 66.9451L170.692 67.3881L170.225 67.6329L171.759 71.0163L172.225 70.7715L173.069 70.3285L176.541 77.9889C177.527 80.164 179.683 80.977 181.661 79.9393C182.193 79.6597 182.617 79.3173 182.962 78.9271C183.11 78.7401 183.142 78.4736 183.041 78.2508L181.888 75.7066C181.888 75.7066 181.58 75.9473 181.38 76.0521C180.642 76.4228 179.845 76.1155 179.478 75.3059L178.33 72.7722L176.424 68.5676L177.757 67.8679L178.224 67.6231L176.69 64.2398L174.891 65.1843L173.85 62.8885Z" fill="#F7F7F7"/>
<path id="Path_12" d="M68.3344 113.883L71.8464 111.849C81.0802 118.23 92.1322 122.615 105.066 124.936C103.479 125.525 101.897 126.098 100.317 126.665C87.9186 124.311 77.2778 120.029 68.3344 113.883Z" fill="#57AFF5"/>
<path id="Path_13" d="M28.5249 139.483C30.899 135.92 33.6312 133.825 36.606 132.264L64.1214 116.324C72.6883 122.169 82.8064 126.312 94.5243 128.699C72.4011 136.29 51.0153 141.621 30.5848 144.027L28.5249 139.483Z" fill="#2196F3"/>
<path id="Path_14" d="M64.1217 116.324L68.3339 113.884C77.2773 120.03 87.9178 124.311 100.316 126.665C98.3799 127.359 96.4491 128.038 94.5246 128.698C82.8071 126.312 72.6882 122.169 64.1217 116.324Z" fill="#FF7000"/>
<path id="Path_15" d="M27.1701 140.856L28.4155 139.542L30.4753 144.086L28.6244 144.065L27.1701 140.856Z" fill="#535353"/>
<path id="Path_16" d="M239.918 35.7503C239.088 36.2306 238.274 36.6884 237.474 37.1231C237.387 37.171 237.281 37.1306 237.238 37.036L236.126 34.5835C236.084 34.4895 236.121 34.3756 236.21 34.3314C236.758 34.0537 237.293 33.7663 237.817 33.4701C237.882 33.4326 237.963 33.4445 238.017 33.4991L239.955 35.444C240.043 35.533 240.023 35.689 239.918 35.7503Z" fill="#FF7000"/>
<path id="Path_17" d="M233.777 35.4742C234.239 35.2729 234.694 35.0664 235.143 34.8546C235.229 34.8139 235.328 34.8536 235.369 34.9442L236.499 37.4361C236.541 37.5296 236.504 37.6435 236.417 37.6894C235.93 37.9467 235.447 38.1951 234.972 38.433C234.617 38.6097 234.196 38.4493 234.024 38.0703L233.372 36.6305C233.172 36.1912 233.357 35.6577 233.777 35.4742Z" fill="#1E1E1E"/>
<path id="Path_18" d="M238.657 32.9795C239.068 32.7315 239.471 32.4762 239.864 32.2132C239.911 32.182 239.969 32.1765 240.02 32.1993L243.046 33.5193C243.182 33.5788 243.194 33.7831 243.067 33.8612C242.344 34.3083 241.631 34.7391 240.926 35.1567C240.863 35.1939 240.786 35.1864 240.73 35.137L238.631 33.2897C238.536 33.2055 238.55 33.0445 238.657 32.9795Z" fill="#1E1E1E"/>
<path id="Path_19" d="M216.364 47.846C216.773 47.6312 216.944 47.0959 216.745 46.656L216.501 46.1169C216.301 45.677 215.804 45.4932 215.395 45.7081C214.986 45.9226 214.814 46.4576 215.013 46.8975L215.258 47.4366C215.457 47.8765 215.955 48.0606 216.364 47.846Z" fill="#1E1E1E"/>
<path id="Path_20" d="M213.142 49.5372C213.55 49.3226 213.722 48.7871 213.523 48.3472L213.278 47.808C213.079 47.3681 212.581 47.1847 212.173 47.3992C211.763 47.6141 211.592 48.1488 211.791 48.5887L212.035 49.1278C212.235 49.5677 212.732 49.752 213.142 49.5372Z" fill="#1E1E1E"/>
<path id="Path_21" d="M209.919 51.2283C210.328 51.0135 210.5 50.4782 210.3 50.0383L210.056 49.4992C209.857 49.0593 209.359 48.8756 208.95 49.0904C208.541 49.3049 208.369 49.8399 208.569 50.2798L208.813 50.819C209.012 51.2589 209.51 51.4429 209.919 51.2283Z" fill="#1E1E1E"/>
<path id="Path_22" d="M206.697 52.9195C207.106 52.7047 207.277 52.1694 207.078 51.7295L206.834 51.1903C206.634 50.7505 206.137 50.5667 205.728 50.7816C205.319 50.9961 205.147 51.5311 205.346 51.971L205.591 52.5101C205.79 52.95 206.288 53.1341 206.697 52.9195Z" fill="#1E1E1E"/>
<path id="Path_23" d="M203.475 54.6107C203.883 54.3961 204.055 53.8605 203.856 53.4206L203.611 52.8815C203.412 52.4416 202.914 52.2582 202.506 52.4727C202.096 52.6875 201.925 53.2223 202.124 53.6622L202.368 54.2013C202.568 54.6412 203.065 54.8255 203.475 54.6107Z" fill="#1E1E1E"/>
<path id="Path_24" d="M200.252 56.3021C200.661 56.0872 200.833 55.5519 200.633 55.1121L200.389 54.5729C200.19 54.133 199.692 53.9493 199.283 54.1641C198.874 54.3787 198.702 54.9137 198.902 55.3536L199.146 55.8927C199.345 56.3326 199.843 56.5166 200.252 56.3021Z" fill="#1E1E1E"/>
<path id="Path_25" d="M197.03 57.9932C197.439 57.7784 197.61 57.2431 197.411 56.8032L197.167 56.2641C196.967 55.8242 196.47 55.6404 196.061 55.8553C195.652 56.0698 195.48 56.6048 195.679 57.0447L195.924 57.5839C196.123 58.0238 196.621 58.2078 197.03 57.9932Z" fill="#1E1E1E"/>
<path id="Path_26" d="M193.808 59.6842C194.217 59.4696 194.389 58.934 194.189 58.4941L193.945 57.955C193.746 57.5151 193.248 57.3316 192.839 57.5462C192.43 57.761 192.258 58.2958 192.458 58.7356L192.702 59.2748C192.901 59.7147 193.399 59.899 193.808 59.6842Z" fill="#1E1E1E"/>
<path id="Path_27" d="M190.586 61.3753C190.995 61.1605 191.166 60.6252 190.967 60.1853L190.723 59.6462C190.523 59.2063 190.026 59.0225 189.617 59.2374C189.208 59.4519 189.036 59.9869 189.235 60.4268L189.48 60.9659C189.679 61.4058 190.177 61.5899 190.586 61.3753Z" fill="#1E1E1E"/>
<path id="Path_28" d="M187.363 63.067C187.772 62.8521 187.944 62.3168 187.744 61.8769L187.5 61.3378C187.301 60.8979 186.803 60.7142 186.394 60.929C185.985 61.1436 185.813 61.6786 186.013 62.1185L186.257 62.6576C186.456 63.0975 186.954 63.2815 187.363 63.067Z" fill="#1E1E1E"/>
<path id="Path_29" d="M184.141 64.7579C184.55 64.5433 184.722 64.0078 184.523 63.5679L184.278 63.0287C184.079 62.5888 183.581 62.4054 183.172 62.6199C182.763 62.8348 182.591 63.3695 182.791 63.8094L183.035 64.3485C183.235 64.7884 183.732 64.9727 184.141 64.7579Z" fill="#1E1E1E"/>
<path id="Path_30" d="M180.919 66.4491C181.328 66.2342 181.5 65.6989 181.3 65.259L181.056 64.7199C180.856 64.28 180.359 64.0963 179.95 64.3111C179.541 64.5256 179.369 65.0606 179.568 65.5005L179.813 66.0397C180.012 66.4796 180.51 66.6636 180.919 66.4491Z" fill="#1E1E1E"/>
<path id="Path_31" d="M177.697 68.1402C178.106 67.9254 178.277 67.3901 178.078 66.9502L177.833 66.4111C177.634 65.9712 177.137 65.7874 176.728 66.0023C176.319 66.2168 176.147 66.7518 176.346 67.1917L176.59 67.7308C176.79 68.1707 177.288 68.3548 177.697 68.1402Z" fill="#1E1E1E"/>
<path id="Path_32" d="M174.474 69.8314C174.883 69.6168 175.055 69.0812 174.856 68.6413L174.611 68.1022C174.412 67.6623 173.914 67.4789 173.505 67.6934C173.096 67.9083 172.924 68.443 173.124 68.8829L173.368 69.422C173.568 69.8619 174.065 70.0462 174.474 69.8314Z" fill="#1E1E1E"/>
<path id="Path_33" d="M171.252 71.5225C171.661 71.3077 171.833 70.7724 171.633 70.3325L171.389 69.7934C171.19 69.3535 170.692 69.1697 170.283 69.3846C169.874 69.5991 169.702 70.1341 169.902 70.574L170.146 71.1131C170.345 71.553 170.843 71.7371 171.252 71.5225Z" fill="#1E1E1E"/>
<path id="Path_34" d="M161.585 76.5963C161.994 76.3814 162.166 75.8461 161.966 75.4062L161.722 74.8671C161.523 74.4272 161.025 74.2435 160.616 74.4583C160.207 74.6729 160.035 75.2079 160.235 75.6478L160.479 76.1869C160.678 76.6268 161.176 76.8108 161.585 76.5963Z" fill="#1E1E1E"/>
<path id="Path_35" d="M158.363 78.2874C158.772 78.0726 158.943 77.5373 158.744 77.0974L158.499 76.5583C158.3 76.1184 157.803 75.9346 157.394 76.1495C156.985 76.364 156.813 76.899 157.012 77.3389L157.256 77.878C157.456 78.3179 157.954 78.502 158.363 78.2874Z" fill="#1E1E1E"/>
<path id="Path_36" d="M155.14 79.9788C155.549 79.7643 155.721 79.2287 155.522 78.7888L155.277 78.2497C155.078 77.8098 154.58 77.6263 154.171 77.8409C153.762 78.0557 153.591 78.5904 153.79 79.0303L154.034 79.5695C154.234 80.0094 154.731 80.1937 155.14 79.9788Z" fill="#1E1E1E"/>
<path id="Path_37" d="M151.918 81.67C152.327 81.4552 152.499 80.9199 152.299 80.48L152.055 79.9408C151.856 79.5009 151.358 79.3172 150.949 79.532C150.54 79.7466 150.368 80.2816 150.568 80.7215L150.812 81.2606C151.011 81.7005 151.509 81.8845 151.918 81.67Z" fill="#1E1E1E"/>
<path id="Path_38" d="M148.696 83.3611C149.105 83.1463 149.276 82.611 149.077 82.1711L148.833 81.632C148.633 81.1921 148.136 81.0084 147.727 81.2232C147.318 81.4378 147.146 81.9728 147.345 82.4126L147.59 82.9518C147.789 83.3917 148.287 83.5757 148.696 83.3611Z" fill="#1E1E1E"/>
<path id="Path_39" d="M145.474 85.0521C145.883 84.8375 146.055 84.3019 145.855 83.862L145.611 83.3229C145.411 82.883 144.914 82.6996 144.505 82.9141C144.096 83.129 143.924 83.6637 144.123 84.1036L144.368 84.6427C144.567 85.0826 145.065 85.2669 145.474 85.0521Z" fill="#1E1E1E"/>
<path id="Path_40" d="M142.252 86.7432C142.661 86.5287 142.831 85.9936 142.632 85.5537L142.388 85.0146C142.188 84.5747 141.691 84.3907 141.283 84.6052C140.873 84.8201 140.701 85.3551 140.901 85.795L141.145 86.3341C141.344 86.774 141.842 86.958 142.252 86.7432Z" fill="#1E1E1E"/>
<path id="Path_41" d="M139.029 88.4347C139.438 88.2201 139.609 87.6846 139.41 87.2447L139.166 86.7055C138.966 86.2656 138.469 86.0822 138.06 86.2967C137.651 86.5113 137.479 87.046 137.679 87.4859L137.923 88.025C138.123 88.4649 138.62 88.6492 139.029 88.4347Z" fill="#1E1E1E"/>
<path id="Path_42" d="M135.807 90.1258C136.216 89.9113 136.388 89.3757 136.188 88.9358L135.944 88.3966C135.745 87.9568 135.247 87.7733 134.838 87.9878C134.429 88.2024 134.257 88.7374 134.457 89.1773L134.701 89.7164C134.9 90.1563 135.398 90.3404 135.807 90.1258Z" fill="#1E1E1E"/>
<path id="Path_43" d="M132.585 91.817C132.994 91.6024 133.165 91.0668 132.966 90.6269L132.722 90.0878C132.522 89.6479 132.025 89.4645 131.616 89.679C131.207 89.8936 131.035 90.4286 131.234 90.8685L131.479 91.4076C131.678 91.8475 132.176 92.0315 132.585 91.817Z" fill="#1E1E1E"/>
<path id="Path_44" d="M129.362 93.5084C129.771 93.2939 129.943 92.7583 129.743 92.3184L129.499 91.7793C129.299 91.3394 128.802 91.1559 128.393 91.3705C127.984 91.585 127.813 92.1197 128.012 92.5596L128.256 93.0987C128.456 93.5386 128.953 93.723 129.362 93.5084Z" fill="#1E1E1E"/>
<path id="Path_45" d="M126.14 95.1993C126.549 94.9848 126.721 94.4492 126.521 94.0093L126.277 93.4701C126.078 93.0302 125.58 92.8468 125.171 93.0613C124.762 93.2759 124.59 93.8109 124.79 94.2508L125.034 94.7899C125.233 95.2298 125.731 95.4139 126.14 95.1993Z" fill="#1E1E1E"/>
<path id="Path_46" d="M116.473 100.273C116.882 100.058 117.054 99.5229 116.855 99.083L116.61 98.5439C116.411 98.104 115.913 97.9205 115.504 98.1351C115.096 98.3496 114.923 98.8846 115.123 99.3245L115.367 99.8636C115.567 100.304 116.065 100.488 116.473 100.273Z" fill="#1E1E1E"/>
<path id="Path_47" d="M113.251 101.964C113.66 101.75 113.832 101.214 113.632 100.774L113.388 100.235C113.188 99.7951 112.691 99.6117 112.282 99.8262C111.873 100.041 111.701 100.576 111.9 101.016L112.145 101.555C112.344 101.995 112.842 102.179 113.251 101.964Z" fill="#1E1E1E"/>
<path id="Path_48" d="M110.029 103.655C110.438 103.441 110.609 102.905 110.41 102.465L110.165 101.926C109.966 101.486 109.469 101.303 109.06 101.517C108.651 101.732 108.479 102.267 108.679 102.707L108.923 103.246C109.122 103.686 109.62 103.87 110.029 103.655Z" fill="#1E1E1E"/>
<path id="Path_49" d="M106.806 105.347C107.215 105.132 107.387 104.597 107.188 104.157L106.943 103.618C106.744 103.178 106.246 102.994 105.837 103.209C105.429 103.423 105.256 103.958 105.456 104.398L105.7 104.937C105.9 105.377 106.398 105.561 106.806 105.347Z" fill="#1E1E1E"/>
<path id="Path_50" d="M103.584 107.038C103.993 106.823 104.165 106.288 103.965 105.848L103.721 105.309C103.522 104.869 103.024 104.685 102.615 104.9C102.206 105.115 102.034 105.65 102.234 106.089L102.478 106.629C102.677 107.068 103.175 107.252 103.584 107.038Z" fill="#1E1E1E"/>
<path id="Path_51" d="M100.362 108.729C100.771 108.514 100.942 107.979 100.743 107.539L100.499 107C100.299 106.56 99.802 106.376 99.3927 106.591C98.9839 106.806 98.8124 107.34 99.0117 107.78L99.2561 108.319C99.4555 108.759 99.9529 108.944 100.362 108.729Z" fill="#1E1E1E"/>
<path id="Path_52" d="M97.1398 110.42C97.5486 110.205 97.7204 109.67 97.521 109.23L97.2767 108.691C97.0773 108.251 96.5796 108.067 96.1708 108.282C95.762 108.497 95.5899 109.032 95.7893 109.471L96.0337 110.011C96.2331 110.45 96.731 110.635 97.1398 110.42Z" fill="#1E1E1E"/>
<path id="Path_53" d="M93.9177 112.111C94.3264 111.897 94.4983 111.361 94.2989 110.921L94.0545 110.382C93.8552 109.942 93.3574 109.759 92.9486 109.973C92.5399 110.188 92.3678 110.723 92.5672 111.163L92.8115 111.702C93.0109 112.142 93.5089 112.326 93.9177 112.111Z" fill="#1E1E1E"/>
<path id="Path_54" d="M90.6953 113.802C91.1047 113.588 91.2759 113.052 91.0766 112.612L90.8322 112.073C90.6328 111.633 90.1356 111.45 89.7263 111.664C89.3175 111.879 89.146 112.414 89.3454 112.854L89.5897 113.393C89.7891 113.833 90.2865 114.017 90.6953 113.802Z" fill="#1E1E1E"/>
<path id="Path_55" d="M87.473 115.494C87.8817 115.279 88.0536 114.744 87.8542 114.304L87.6098 113.765C87.4105 113.325 86.9127 113.141 86.5039 113.356C86.0952 113.57 85.9231 114.105 86.1225 114.545L86.3668 115.084C86.5662 115.524 87.0642 115.708 87.473 115.494Z" fill="#1E1E1E"/>
<path id="Path_56" d="M223.203 51.0406L227.879 48.5862C228.16 48.4385 228.278 48.0692 228.141 47.7663L223.309 37.1067C223.172 36.8032 222.829 36.6757 222.547 36.8234L217.871 39.2777C217.59 39.4255 217.471 39.795 217.609 40.0985L222.44 50.7581C222.578 51.0611 222.921 51.1883 223.203 51.0406Z" fill="#F7F7F7"/>
<path id="Shape_3" fill-rule="evenodd" clip-rule="evenodd" d="M227.867 48.3017L222.843 51.07C222.503 51.2574 222.111 51.1414 221.968 50.8108L217.524 40.5021C217.382 40.172 217.543 39.752 217.883 39.5647L222.907 36.7963C223.247 36.609 223.638 36.7248 223.78 37.0548L228.224 47.3635C228.367 47.6941 228.207 48.1143 227.867 48.3017ZM223.648 37.1242C223.536 36.8653 223.229 36.7741 222.962 36.9211L217.934 39.6909C217.667 39.8378 217.541 40.1679 217.653 40.4268L222.101 50.741C222.213 51.0005 222.521 51.0922 222.787 50.9453L227.815 48.1754C228.082 48.0285 228.208 47.6979 228.096 47.4385L223.648 37.1242Z" fill="#A4A4A4"/>
<path id="Path_57" d="M222.744 51.4475L228.458 48.4486C228.659 48.3431 228.743 48.08 228.645 47.8641L228.637 47.8479C228.54 47.632 228.295 47.541 228.094 47.6466L222.38 50.6455C222.179 50.7511 222.095 51.0144 222.193 51.2303L222.2 51.2465C222.298 51.4624 222.543 51.5531 222.744 51.4475Z" fill="#5E5E5E"/>
<path id="Path_58" d="M221.509 44.4851L221.641 44.416C221.877 44.2918 221.976 43.9827 221.861 43.7279L221.795 43.5834C221.68 43.3286 221.393 43.2222 221.156 43.3465L221.024 43.4155C220.788 43.5395 220.689 43.8489 220.804 44.1036L220.87 44.2481C220.985 44.5029 221.273 44.6091 221.509 44.4851Z" fill="#FF7000"/>
<path id="Path_59" d="M221.487 40.1933L221.982 39.9335C222.119 39.8618 222.176 39.6837 222.11 39.5369L222.109 39.5357C222.043 39.3889 221.877 39.3273 221.74 39.3989L221.245 39.6588C221.108 39.7307 221.051 39.9094 221.117 40.0562L221.118 40.0574C221.184 40.2042 221.35 40.2652 221.487 40.1933Z" fill="#E15050"/>
<path id="Path_60" d="M221.933 45.9162L222.428 45.6564C222.564 45.5848 222.622 45.4066 222.555 45.2598L222.555 45.2587C222.488 45.1118 222.322 45.0503 222.186 45.1219L221.69 45.3817C221.554 45.4533 221.497 45.6321 221.563 45.7789L221.564 45.78C221.63 45.9269 221.796 45.9878 221.933 45.9162Z" fill="#E15050"/>
<path id="Shape_4" fill-rule="evenodd" clip-rule="evenodd" d="M80.3859 125.706L75.362 128.474C75.022 128.662 74.6295 128.546 74.4869 128.216L70.0427 117.907C69.9005 117.577 70.0619 117.157 70.4019 116.969L75.4258 114.201C75.7653 114.014 76.157 114.129 76.2993 114.459L80.7435 124.768C80.886 125.099 80.7253 125.519 80.3859 125.706ZM76.1672 114.529C76.0555 114.27 75.7479 114.179 75.4812 114.326L70.4533 117.095C70.1867 117.242 70.0601 117.573 70.1717 117.832L74.6195 128.146C74.7314 128.405 75.0398 128.497 75.3065 128.35L80.3344 125.58C80.6011 125.433 80.7268 125.102 80.6149 124.843L76.1672 114.529Z" fill="#A4A4A4"/>
<path id="Path_61" d="M75.2626 128.852L80.977 125.853C81.1781 125.748 81.2618 125.485 81.164 125.269L81.1566 125.252C81.0588 125.037 80.8146 124.946 80.6134 125.051L74.899 128.05C74.6979 128.156 74.6142 128.419 74.712 128.635L74.7194 128.651C74.8172 128.867 75.0614 128.958 75.2626 128.852Z" fill="#5E5E5E"/>
<path id="Path_62" d="M74.0282 121.89L74.1598 121.821C74.3966 121.697 74.4955 121.387 74.38 121.133L74.3145 120.988C74.199 120.733 73.9118 120.627 73.6751 120.751L73.5435 120.82C73.3073 120.944 73.2078 121.254 73.3233 121.508L73.3888 121.653C73.5043 121.908 73.792 122.014 74.0282 121.89Z" fill="#FF7000"/>
<path id="Path_63" d="M74.0063 117.598L74.5014 117.338C74.6379 117.266 74.6953 117.088 74.6288 116.941L74.6282 116.94C74.5617 116.793 74.3956 116.732 74.2592 116.804L73.7641 117.063C73.6276 117.135 73.5705 117.314 73.637 117.461L73.6375 117.462C73.7041 117.609 73.8699 117.669 74.0063 117.598Z" fill="#E15050"/>
<path id="Path_64" d="M74.4519 123.321L74.947 123.061C75.0834 122.989 75.1409 122.811 75.0743 122.664L75.0738 122.663C75.0073 122.516 74.8412 122.455 74.7047 122.526L74.2096 122.786C74.0732 122.858 74.016 123.037 74.0826 123.183L74.0831 123.185C74.1496 123.331 74.3155 123.392 74.4519 123.321Z" fill="#E15050"/>
<path id="Shape_5" fill-rule="evenodd" clip-rule="evenodd" d="M247.541 42.3411L245.404 43.5225C245.168 43.6527 244.896 43.5721 244.798 43.3426L243.903 41.2584C243.805 41.0288 243.917 40.7367 244.152 40.6065L246.29 39.4251C246.525 39.295 246.797 39.375 246.895 39.6045L247.79 41.6887C247.888 41.9183 247.777 42.211 247.541 42.3411ZM246.764 39.6763C246.696 39.5167 246.507 39.4604 246.343 39.5511L244.206 40.7331C244.042 40.8235 243.964 41.0273 244.033 41.1869L244.928 43.2709C244.997 43.4306 245.186 43.4866 245.349 43.3961L247.487 42.2142C247.651 42.1234 247.728 41.92 247.659 41.7604L246.764 39.6763Z" fill="#B1B1B1"/>
<path id="Shape_6" fill-rule="evenodd" clip-rule="evenodd" d="M236.739 53.8299L234.709 54.95C234.524 55.0523 234.309 54.9893 234.231 54.8087L233.705 53.5851C233.628 53.4046 233.716 53.174 233.902 53.0717L235.932 51.9515C236.117 51.8492 236.331 51.9126 236.409 52.0931L236.935 53.3167C237.013 53.4973 236.925 53.7276 236.739 53.8299ZM236.279 52.166C236.231 52.0548 236.098 52.0156 235.984 52.0786L233.957 53.1974C233.842 53.2607 233.788 53.4026 233.836 53.5139L234.362 54.7354C234.41 54.8467 234.542 54.8861 234.656 54.8229L236.684 53.704C236.798 53.6411 236.852 53.4989 236.804 53.3876L236.279 52.166Z" fill="#B1B1B1"/>
<path id="Shape_7" fill-rule="evenodd" clip-rule="evenodd" d="M246.431 41.1494C246.566 41.4637 246.414 41.8655 246.091 42.044C245.769 42.2225 245.396 42.1113 245.261 41.7971C245.126 41.4823 245.279 41.0821 245.601 40.9036C245.924 40.7251 246.296 40.8346 246.431 41.1494ZM246.301 41.2215C246.196 40.9771 245.906 40.8908 245.655 41.0295C245.405 41.1681 245.285 41.4807 245.39 41.7251C245.495 41.9695 245.786 42.0554 246.037 41.9168C246.287 41.7781 246.406 41.4658 246.301 41.2215Z" fill="#B1B1B1"/>
<path id="Shape_8" fill-rule="evenodd" clip-rule="evenodd" d="M221.398 63.3123L218.37 64.9836C218.103 65.1309 217.796 65.0401 217.684 64.7809L216.848 62.8355C216.737 62.5763 216.863 62.2466 217.13 62.0993L220.158 60.428C220.425 60.2807 220.732 60.3714 220.843 60.6307L221.68 62.576C221.791 62.8352 221.665 63.1649 221.398 63.3123ZM220.713 60.7034C220.631 60.5135 220.406 60.4465 220.21 60.5545L217.184 62.2252C216.989 62.3332 216.897 62.5752 216.979 62.7651L217.815 64.7085C217.896 64.8984 218.121 64.9653 218.317 64.8574L221.343 63.1867C221.538 63.0787 221.63 62.8367 221.549 62.6468L220.713 60.7034Z" fill="#B1B1B1"/>
<path id="Shape_9" fill-rule="evenodd" clip-rule="evenodd" d="M140.339 104.717L137.728 106.159C137.487 106.292 137.21 106.21 137.109 105.975L136.34 104.187C136.24 103.952 136.354 103.653 136.595 103.52L139.205 102.079C139.446 101.946 139.724 102.028 139.825 102.263L140.593 104.051C140.694 104.286 140.58 104.584 140.339 104.717ZM139.694 102.335C139.623 102.17 139.427 102.112 139.258 102.206L136.649 103.647C136.48 103.741 136.4 103.951 136.471 104.116L137.239 105.903C137.31 106.068 137.506 106.126 137.675 106.032L140.284 104.591C140.453 104.498 140.533 104.287 140.462 104.122L139.694 102.335Z" fill="#B1B1B1"/>
<path id="Shape_10" fill-rule="evenodd" clip-rule="evenodd" d="M220.015 62.9821L218.993 63.5438C218.677 63.7181 218.311 63.6104 218.178 63.3029C218.046 62.9959 218.196 62.6041 218.512 62.4299L219.534 61.8681C219.851 61.6939 220.216 61.8021 220.349 62.1091C220.482 62.4166 220.332 62.8079 220.015 62.9821ZM220.219 62.1813C220.116 61.9438 219.831 61.8597 219.586 61.9945L218.568 62.5537C218.322 62.6885 218.206 62.9928 218.308 63.2304C218.411 63.4679 218.695 63.5515 218.941 63.4167L219.959 62.8575C220.205 62.7227 220.322 62.4189 220.219 62.1813Z" fill="#B1B1B1"/>
<path id="Shape_11" fill-rule="evenodd" clip-rule="evenodd" d="M168.907 76.1184L166.797 77.2806C166.46 77.4666 166.072 77.3507 165.93 77.0232L163.708 71.8699C163.566 71.5424 163.725 71.1262 164.063 70.9402L166.173 69.778C166.51 69.5923 166.898 69.7073 167.039 70.0348L169.262 75.1881C169.403 75.5157 169.244 75.9327 168.907 76.1184ZM166.907 70.1046C166.796 69.8488 166.492 69.7581 166.228 69.9033L164.114 71.0668C163.85 71.2123 163.726 71.539 163.836 71.7949L166.062 76.9536C166.173 77.2101 166.477 77.3002 166.742 77.1547L168.855 75.9912C169.119 75.846 169.243 75.5199 169.133 75.2634L166.907 70.1046Z" fill="#B1B1B1"/>
<path id="Shape_12" fill-rule="evenodd" clip-rule="evenodd" d="M163.95 78.7201L161.84 79.8824C161.503 80.0683 161.114 79.9525 160.973 79.625L158.751 74.4717C158.609 74.1442 158.768 73.728 159.105 73.542L161.216 72.3798C161.553 72.1942 161.941 72.3091 162.082 72.6366L164.305 77.7899C164.446 78.1174 164.287 78.5345 163.95 78.7201ZM161.949 72.7064C161.839 72.4506 161.535 72.3599 161.271 72.5051L159.157 73.6686C158.893 73.8141 158.769 74.1408 158.879 74.3967L161.105 79.5554C161.216 79.8119 161.52 79.9019 161.784 79.7564L163.898 78.5929C164.162 78.4477 164.286 78.1216 164.176 77.8652L161.949 72.7064Z" fill="#B1B1B1"/>
<path id="Path_65" d="M168.03 73.2139C168.439 72.9991 168.61 72.4638 168.411 72.0239L168.166 71.4848C167.967 71.0449 167.47 70.8611 167.061 71.076C166.652 71.2905 166.48 71.8255 166.679 72.2654L166.923 72.8046C167.123 73.2445 167.621 73.4285 168.03 73.2139Z" fill="#1E1E1E"/>
<path id="Path_66" d="M164.807 74.9051C165.216 74.6906 165.388 74.155 165.189 73.7151L164.944 73.1759C164.745 72.736 164.247 72.5526 163.838 72.7671C163.429 72.982 163.258 73.5167 163.457 73.9566L163.701 74.4957C163.901 74.9356 164.398 75.1199 164.807 74.9051Z" fill="#FF7000"/>
<path id="Path_67" d="M59.2329 126.638L60.7096 129.896C60.8116 130.121 60.7606 130.392 60.5855 130.556L55.423 135.403C55.3342 135.486 55.2222 135.533 55.1043 135.538L46.3869 135.89C45.915 135.91 45.6697 135.29 46.0092 134.938L53.2649 127.385C53.3402 127.307 53.4357 127.255 53.5389 127.237L58.6872 126.334C58.9116 126.294 59.1332 126.418 59.2329 126.638Z" fill="#CECECE"/>
<g id="Group_2" opacity="0.5">
<path id="Path_68" opacity="0.5" d="M58.9906 127.795C58.9906 127.795 54.6224 133.728 55.068 139.451C50.8653 140.333 37.995 143.076 37.995 143.076C37.995 143.076 38.9077 138.997 40.6485 137.422C42.3892 135.847 58.9906 127.795 58.9906 127.795Z" fill="#6F6F6F"/>
</g>
<path id="Path_69" d="M59.1174 127.398L37.124 134.314C37.1054 134.32 37.0869 134.328 37.0696 134.337L29.9056 138.097C29.5599 138.278 29.7085 138.842 30.0918 138.801L41.6345 137.567C51.1357 134.176 58.5115 130.786 59.1174 127.398Z" fill="#DFDFDF"/>
<path id="Path_70" d="M184.086 71.4068C194.993 65.6824 199.839 76.3755 188.932 82.0998L138.616 108.508C125.821 113.915 123.204 112.628 135.466 101.558C152.656 89.4426 169.685 77.6676 184.086 71.4068Z" fill="#E8E8E8"/>
<path id="Path_71" d="M182.837 75.6663C170.622 79.8018 156.874 87.5708 142.62 96.5384C157.34 86.2752 171.687 76.7969 184.086 71.4066C192.235 67.1297 196.999 72.0176 194.339 77.1506C192.145 74.5333 188.048 73.3487 182.837 75.6663Z" fill="white"/>
<path id="Path_72" d="M99.5531 87.3125C99.5531 87.3125 101.536 86.2717 103.872 87.3627C106.207 88.4533 118.131 93.7772 118.131 93.7772C118.131 93.7772 121.575 95.2804 126.895 93.4806C132.216 91.6803 178.242 76.7896 178.242 76.7896L145.986 97.6902L134.391 97.1571L118.335 98.9654C118.335 98.9654 115.366 99.8614 111.566 96.8921C107.765 93.9233 99.5531 87.3125 99.5531 87.3125Z" fill="#B7B7B7"/>
<path id="Path_73" d="M188.916 73.3073L195.389 89.498C188.671 95.1672 181.948 98.0518 175.222 98.5611L169.643 86.9282C168.418 84.6898 183.377 74.7375 188.916 73.3073Z" fill="white"/>
<path id="Path_74" d="M190.855 73.4783L196.902 88.1747C196.399 88.6322 195.894 89.0719 195.39 89.4974L188.916 73.3073C189.931 73.0446 190.63 73.0685 190.855 73.4783Z" fill="#8E8E8E"/>
<path id="Path_75" d="M145.248 97.4155C145.248 97.4155 140.654 100.819 141.392 101.094C142.13 101.369 148.063 100.241 154.887 95.6667C152.183 94.4379 152.431 94.3071 152.431 94.3071C152.431 94.3071 146.107 97.9574 145.248 97.4155Z" fill="#CECECE"/>
<path id="Path_76" d="M138.098 96.5351C138.098 96.5351 133.483 100.017 134.242 100.213C138.011 101.191 156.914 89.307 154.573 88.881C154.573 88.881 138.957 97.077 138.098 96.5351Z" fill="#CECECE"/>
<path id="Path_77" d="M182.62 83.3465C182.62 83.3465 181.09 83.6373 181.16 83.3692C181.51 82.0361 187.216 80.1622 186.957 80.9377C186.957 80.9377 182.625 82.9513 182.62 83.3465Z" fill="#CECECE"/>
<path id="Path_78" d="M127.868 97.6025C127.868 97.6025 124.057 100.661 124.729 100.904C128.066 102.108 143.815 91.8799 141.753 91.3076C141.753 91.3076 128.647 98.1863 127.868 97.6025Z" fill="#CECECE"/>
<path id="Path_79" d="M170.37 88.5324C168.545 89.4812 167.24 90.7958 166.267 92.3413L168.447 97.1529C170.37 97.1077 172.142 96.7301 173.763 96.0181L170.37 88.5324Z" fill="#2196F3"/>
<path id="Path_80" d="M168.084 96.351L164.083 96.8433C163.771 96.881 163.588 96.4756 163.808 96.2357L166.638 93.1603L168.084 96.351Z" fill="#FF7000"/>
<path id="Path_81" d="M181.985 97.2325C179.042 99.2086 176.281 100.22 173.772 99.8829C173.485 99.8446 173.394 99.4437 173.635 99.2716L175.069 98.2429C176.524 98.3796 179.103 97.8904 181.985 97.2325Z" fill="#CECECE"/>
<path id="Path_82" d="M208.019 57.1902C208.153 57.4856 208.483 57.6084 208.757 57.4646C209.031 57.3208 209.144 56.9654 209.01 56.67C208.876 56.3746 208.546 56.2519 208.272 56.3956C207.999 56.5394 207.885 56.8949 208.019 57.1902Z" fill="#DFDFDF"/>
<path id="Path_83" d="M201.96 58.7151C202.094 59.0105 202.424 59.1333 202.698 58.9895C202.972 58.8457 203.085 58.4903 202.952 58.1949C202.818 57.8995 202.488 57.7768 202.214 57.9205C201.94 58.0643 201.826 58.4198 201.96 58.7151Z" fill="#DFDFDF"/>
<path id="Path_84" d="M115.195 92.4651C113.009 93.0055 110.471 93.6006 108.028 94.0977C107.152 93.4008 106.243 92.6753 105.358 91.9685C107.955 91.9406 110.813 91.7997 113.342 91.636C114 91.9303 114.625 92.2104 115.195 92.4651Z" fill="#FF7000"/>
<path id="Path_85" d="M99.5531 87.3125C99.5531 87.3125 101.536 86.2717 103.872 87.3627C104.836 87.813 107.436 88.9856 110.157 90.2071C107.407 90.0037 104.506 89.7278 102.102 89.3604C100.594 88.15 99.5531 87.3125 99.5531 87.3125Z" fill="#2196F3"/>
<path id="Path_86" d="M105.358 91.9676C104.18 91.0261 103.05 90.1204 102.103 89.3601C104.507 89.7275 107.407 90.0043 110.157 90.2071C111.232 90.6895 112.323 91.179 113.342 91.6351C110.813 91.7988 107.955 91.9403 105.358 91.9676Z" fill="#FF7000"/>
<path id="Path_87" d="M25.0637 91.1963C25.0139 91.3517 24.8565 91.4344 24.7126 91.3806C24.5674 91.3268 24.4906 91.1573 24.5408 91.0016C24.59 90.8465 24.7475 90.7639 24.8919 90.8174C25.0363 90.8709 25.1134 91.0409 25.0637 91.1963Z" fill="white"/>
<path id="Path_88" d="M23.3071 92.1184C23.2574 92.2738 23.0999 92.3564 22.9555 92.3029C22.8108 92.2488 22.734 92.0794 22.7837 91.9239C22.8335 91.7685 22.9909 91.6859 23.1354 91.7394C23.2792 91.7932 23.3569 91.9629 23.3071 92.1184Z" fill="white"/>
<path id="Path_89" d="M21.5506 93.0403C21.5009 93.1957 21.3434 93.2784 21.1995 93.2246C21.0543 93.1708 20.9775 93.0013 21.0278 92.8456C21.077 92.6905 21.2344 92.6078 21.3788 92.6614C21.5233 92.7149 21.6003 92.8849 21.5506 93.0403Z" fill="white"/>
<path id="Path_90" d="M19.794 93.9622C19.7443 94.1176 19.5868 94.2003 19.4429 94.1465C19.2977 94.0927 19.2209 93.9232 19.2712 93.7675C19.3204 93.6124 19.4778 93.5297 19.6223 93.5832C19.7667 93.6367 19.8437 93.8068 19.794 93.9622Z" fill="white"/>
<path id="Path_91" d="M25.9221 93.0904C25.8723 93.2458 25.7149 93.3284 25.571 93.2746C25.426 93.2214 25.349 93.0514 25.3992 92.8957C25.4484 92.7405 25.6059 92.6579 25.7503 92.7114C25.8947 92.7649 25.9718 92.935 25.9221 93.0904Z" fill="white"/>
<path id="Path_92" d="M24.1655 94.0124C24.1158 94.1678 23.9583 94.2505 23.8139 94.1969C23.6695 94.1434 23.5924 93.9734 23.6421 93.818C23.6919 93.6626 23.8493 93.5799 23.9938 93.6334C24.1376 93.6872 24.2152 93.857 24.1655 94.0124Z" fill="white"/>
<path id="Path_93" d="M22.409 94.9341C22.3593 95.0895 22.2018 95.1722 22.0579 95.1184C21.913 95.0652 21.8359 94.8951 21.8862 94.7394C21.9353 94.5843 22.0928 94.5016 22.2372 94.5552C22.3817 94.6087 22.4587 94.7787 22.409 94.9341Z" fill="white"/>
<path id="Path_94" d="M20.6524 95.8562C20.6027 96.0116 20.4452 96.0943 20.3013 96.0405C20.1564 95.9873 20.0793 95.8172 20.1296 95.6615C20.1788 95.5064 20.3362 95.4238 20.4807 95.4773C20.6251 95.5308 20.7021 95.7008 20.6524 95.8562Z" fill="white"/>
<path id="Path_95" d="M26.7807 94.9851C26.731 95.1405 26.5735 95.2232 26.4296 95.1694C26.2844 95.1156 26.2076 94.9461 26.2579 94.7904C26.3071 94.6353 26.4645 94.5527 26.609 94.6062C26.7534 94.6597 26.8304 94.8297 26.7807 94.9851Z" fill="white"/>
<path id="Path_96" d="M25.0242 95.9069C24.9744 96.0623 24.817 96.145 24.6725 96.0915C24.5279 96.0374 24.4511 95.8679 24.5008 95.7125C24.5505 95.5571 24.708 95.4745 24.8524 95.528C24.9963 95.5818 25.0739 95.7515 25.0242 95.9069Z" fill="white"/>
<path id="Path_97" d="M23.2678 96.8289C23.218 96.9843 23.0606 97.0669 22.9167 97.0132C22.7715 96.9593 22.6947 96.7899 22.7449 96.6342C22.7941 96.4791 22.9516 96.3964 23.096 96.4499C23.2404 96.5034 23.3175 96.6735 23.2678 96.8289Z" fill="white"/>
<path id="Path_98" d="M21.5113 97.7508C21.4616 97.9062 21.3041 97.9888 21.1602 97.935C21.015 97.8812 20.9382 97.7118 20.9885 97.5561C21.0376 97.4009 21.1951 97.3183 21.3395 97.3718C21.484 97.4253 21.561 97.5954 21.5113 97.7508Z" fill="white"/>
<path id="Path_99" d="M31.1522 95.0352C31.1027 95.1912 30.945 95.2733 30.8005 95.2198C30.6561 95.1663 30.5791 94.9962 30.6288 94.8408C30.6785 94.6854 30.836 94.6028 30.9804 94.6563C31.1243 94.7101 31.2019 94.8798 31.1522 95.0352Z" fill="white"/>
<path id="Path_100" d="M29.3957 95.9572C29.3462 96.1132 29.1885 96.1952 29.0446 96.1414C28.8996 96.0882 28.8225 95.9182 28.8728 95.7625C28.922 95.6074 29.0795 95.5247 29.2239 95.5782C29.3683 95.6318 29.4454 95.8018 29.3957 95.9572Z" fill="white"/>
<path id="Path_101" d="M27.6393 96.8791C27.5898 97.0351 27.4321 97.1171 27.2882 97.0633C27.1433 97.0101 27.0662 96.8401 27.1165 96.6844C27.1656 96.5293 27.3231 96.4466 27.4675 96.5001C27.612 96.5536 27.689 96.7237 27.6393 96.8791Z" fill="white"/>
<path id="Path_102" d="M25.8826 97.8009C25.8332 97.9568 25.6754 98.0389 25.531 97.9854C25.3866 97.9319 25.3095 97.7619 25.3593 97.6065C25.409 97.451 25.5664 97.3684 25.7109 97.4219C25.8547 97.4757 25.9324 97.6455 25.8826 97.8009Z" fill="white"/>
<path id="Path_103" d="M24.1262 98.7228C24.0768 98.8788 23.919 98.9609 23.7752 98.9071C23.6302 98.8539 23.5531 98.6838 23.6034 98.5281C23.6526 98.373 23.8101 98.2904 23.9545 98.3439C24.0989 98.3974 24.176 98.5674 24.1262 98.7228Z" fill="white"/>
<path id="Path_104" d="M22.3697 99.6447C22.3202 99.8007 22.1625 99.8828 22.0186 99.829C21.8736 99.7757 21.7965 99.6057 21.8468 99.45C21.896 99.2949 22.0535 99.2122 22.1979 99.2657C22.3423 99.3193 22.4194 99.4893 22.3697 99.6447Z" fill="white"/>
<path id="Path_105" d="M20.6131 100.567C20.5636 100.723 20.4059 100.805 20.262 100.751C20.1176 100.697 20.0405 100.527 20.0903 100.372C20.1394 100.217 20.2969 100.134 20.4413 100.188C20.5858 100.241 20.6628 100.411 20.6131 100.567Z" fill="white"/>
<path id="Path_106" d="M18.8567 101.488C18.8072 101.644 18.6495 101.727 18.5056 101.673C18.3607 101.619 18.2836 101.449 18.3339 101.294C18.3831 101.139 18.5405 101.056 18.685 101.109C18.8294 101.163 18.9064 101.333 18.8567 101.488Z" fill="white"/>
<path id="Path_107" d="M32.0112 96.9306C31.9615 97.086 31.804 97.1687 31.6596 97.1152C31.5149 97.0611 31.4381 96.8916 31.4878 96.7362C31.5376 96.5808 31.695 96.4981 31.8395 96.5517C31.9833 96.6054 32.061 96.7752 32.0112 96.9306Z" fill="white"/>
<path id="Path_108" d="M30.2547 97.8523C30.205 98.0077 30.0475 98.0904 29.9036 98.0366C29.7584 97.9828 29.6816 97.8133 29.7319 97.6576C29.7811 97.5025 29.9385 97.4199 30.083 97.4734C30.2274 97.5269 30.3044 97.6969 30.2547 97.8523Z" fill="white"/>
<path id="Path_109" d="M28.4981 98.7742C28.4484 98.9296 28.2909 99.0123 28.147 98.9585C28.0018 98.9047 27.925 98.7352 27.9753 98.5795C28.0245 98.4244 28.1819 98.3417 28.3264 98.3952C28.4708 98.4488 28.5478 98.6188 28.4981 98.7742Z" fill="white"/>
<path id="Path_110" d="M26.7416 99.6962C26.6918 99.8517 26.5344 99.9343 26.3899 99.8808C26.2453 99.8267 26.1685 99.6572 26.2182 99.5018C26.2679 99.3464 26.4254 99.2638 26.5698 99.3173C26.7137 99.3711 26.7913 99.5408 26.7416 99.6962Z" fill="white"/>
<path id="Path_111" d="M24.9853 100.618C24.9356 100.773 24.7781 100.856 24.6342 100.802C24.489 100.748 24.4122 100.579 24.4625 100.423C24.5116 100.268 24.6691 100.185 24.8135 100.239C24.958 100.293 25.035 100.463 24.9853 100.618Z" fill="white"/>
<path id="Path_112" d="M23.2287 101.54C23.179 101.695 23.0215 101.778 22.8776 101.724C22.7324 101.671 22.6556 101.501 22.7059 101.345C22.7551 101.19 22.9125 101.108 23.0569 101.161C23.2014 101.215 23.2784 101.385 23.2287 101.54Z" fill="white"/>
<path id="Path_113" d="M21.4722 102.462C21.4224 102.617 21.265 102.7 21.1211 102.646C20.9764 102.592 20.8996 102.423 20.9493 102.267C20.9985 102.112 21.156 102.029 21.3004 102.083C21.4448 102.136 21.5219 102.306 21.4722 102.462Z" fill="white"/>
<path id="Path_114" d="M19.7158 103.384C19.666 103.539 19.5086 103.622 19.3647 103.568C19.2195 103.514 19.1427 103.345 19.1929 103.189C19.2421 103.034 19.3996 102.951 19.544 103.005C19.6884 103.058 19.7655 103.228 19.7158 103.384Z" fill="white"/>
<path id="Path_115" d="M32.8696 98.8245C32.8201 98.9805 32.6624 99.0626 32.518 99.0091C32.3735 98.9556 32.2965 98.7855 32.3462 98.6301C32.3959 98.4747 32.5534 98.3921 32.6978 98.4456C32.8417 98.4994 32.9193 98.6691 32.8696 98.8245Z" fill="white"/>
<path id="Path_116" d="M31.1131 99.7463C31.0636 99.9022 30.9059 99.9843 30.762 99.9305C30.617 99.8773 30.5399 99.7073 30.5902 99.5516C30.6394 99.3964 30.7969 99.3138 30.9413 99.3673C31.0857 99.4208 31.1628 99.5909 31.1131 99.7463Z" fill="white"/>
<path id="Path_117" d="M29.3567 100.668C29.3072 100.824 29.1495 100.906 29.0056 100.852C28.8607 100.799 28.7836 100.629 28.8339 100.473C28.8831 100.318 29.0405 100.236 29.1849 100.289C29.3294 100.343 29.4064 100.513 29.3567 100.668Z" fill="white"/>
<path id="Path_118" d="M27.6 101.59C27.5506 101.746 27.3928 101.828 27.2484 101.775C27.104 101.721 27.0269 101.551 27.0767 101.396C27.1264 101.24 27.2839 101.158 27.4283 101.211C27.5722 101.265 27.6498 101.435 27.6 101.59Z" fill="white"/>
<path id="Path_119" d="M25.8437 102.512C25.7942 102.668 25.6364 102.75 25.4926 102.696C25.3476 102.643 25.2705 102.473 25.3208 102.317C25.37 102.162 25.5275 102.079 25.6719 102.133C25.8163 102.186 25.8934 102.356 25.8437 102.512Z" fill="white"/>
<path id="Path_120" d="M24.0871 103.434C24.0376 103.59 23.8799 103.672 23.736 103.618C23.591 103.565 23.5139 103.395 23.5642 103.239C23.6134 103.084 23.7709 103.002 23.9153 103.055C24.0597 103.109 24.1368 103.279 24.0871 103.434Z" fill="white"/>
<path id="Path_121" d="M22.3305 104.356C22.281 104.512 22.1233 104.594 21.9794 104.54C21.835 104.486 21.7579 104.316 21.8077 104.161C21.8569 104.006 22.0143 103.923 22.1587 103.977C22.3032 104.03 22.3802 104.2 22.3305 104.356Z" fill="white"/>
<path id="Path_122" d="M20.5741 105.278C20.5246 105.434 20.3669 105.516 20.223 105.462C20.0781 105.409 20.001 105.239 20.0513 105.083C20.1005 104.928 20.2579 104.845 20.4023 104.899C20.5468 104.952 20.6238 105.122 20.5741 105.278Z" fill="white"/>
<path id="Path_123" d="M33.7286 100.72C33.6789 100.875 33.5214 100.958 33.377 100.904C33.2323 100.85 33.1555 100.681 33.2052 100.525C33.255 100.37 33.4125 100.287 33.5569 100.341C33.7007 100.395 33.7784 100.564 33.7286 100.72Z" fill="white"/>
<path id="Path_124" d="M31.9721 101.642C31.9224 101.797 31.7649 101.88 31.621 101.826C31.4758 101.772 31.399 101.603 31.4493 101.447C31.4985 101.292 31.6559 101.209 31.8003 101.263C31.9448 101.316 32.0218 101.486 31.9721 101.642Z" fill="white"/>
<path id="Path_125" d="M30.2157 102.564C30.1659 102.719 30.0084 102.802 29.8646 102.748C29.7193 102.694 29.6425 102.525 29.6928 102.369C29.742 102.214 29.8995 102.131 30.0439 102.185C30.1883 102.238 30.2654 102.408 30.2157 102.564Z" fill="white"/>
<path id="Path_126" d="M28.459 103.485C28.4093 103.641 28.2518 103.723 28.1074 103.67C27.9627 103.616 27.8859 103.446 27.9356 103.291C27.9853 103.135 28.1428 103.053 28.2872 103.106C28.4311 103.16 28.5087 103.33 28.459 103.485Z" fill="white"/>
<path id="Path_127" d="M26.7027 104.407C26.653 104.563 26.4955 104.645 26.3516 104.592C26.2064 104.538 26.1296 104.368 26.1799 104.213C26.2291 104.057 26.3865 103.975 26.5309 104.028C26.6754 104.082 26.7524 104.252 26.7027 104.407Z" fill="white"/>
<path id="Path_128" d="M24.9461 105.329C24.8964 105.485 24.7389 105.567 24.595 105.513C24.4498 105.46 24.373 105.29 24.4233 105.134C24.4725 104.979 24.6299 104.897 24.7744 104.95C24.9188 105.004 24.9958 105.174 24.9461 105.329Z" fill="white"/>
<path id="Path_129" d="M23.1896 106.251C23.1398 106.407 22.9824 106.489 22.8385 106.435C22.6938 106.381 22.617 106.212 22.6667 106.056C22.7159 105.901 22.8734 105.819 23.0178 105.872C23.1622 105.926 23.2393 106.096 23.1896 106.251Z" fill="white"/>
<path id="Path_130" d="M21.4332 107.173C21.3835 107.328 21.226 107.411 21.0821 107.357C20.9369 107.303 20.8601 107.134 20.9103 106.978C20.9595 106.823 21.117 106.74 21.2614 106.794C21.4058 106.847 21.4829 107.017 21.4332 107.173Z" fill="white"/>
<path id="Path_131" d="M31.0738 104.457C31.0243 104.613 30.8666 104.695 30.7227 104.641C30.5777 104.588 30.5006 104.418 30.5509 104.262C30.6001 104.107 30.7576 104.024 30.902 104.078C31.0464 104.132 31.1235 104.302 31.0738 104.457Z" fill="white"/>
<path id="Path_132" d="M29.3172 105.379C29.2677 105.535 29.11 105.617 28.9656 105.563C28.8212 105.51 28.7441 105.34 28.7938 105.184C28.8436 105.029 29.001 104.946 29.1454 105C29.2893 105.054 29.3669 105.223 29.3172 105.379Z" fill="white"/>
<path id="Path_133" d="M27.5607 106.301C27.5112 106.457 27.3535 106.539 27.2096 106.485C27.0646 106.432 26.9876 106.262 27.0378 106.106C27.087 105.951 27.2445 105.868 27.3889 105.922C27.5334 105.975 27.6104 106.145 27.5607 106.301Z" fill="white"/>
<path id="Path_134" d="M25.8043 107.223C25.7549 107.379 25.5971 107.461 25.4533 107.407C25.3083 107.354 25.2312 107.184 25.2815 107.028C25.3307 106.873 25.4882 106.79 25.6326 106.844C25.777 106.897 25.8541 107.067 25.8043 107.223Z" fill="white"/>
<path id="Path_135" d="M31.9328 106.352C31.8831 106.507 31.7256 106.59 31.5817 106.536C31.4365 106.483 31.3597 106.313 31.41 106.157C31.4592 106.002 31.6166 105.92 31.761 105.973C31.9055 106.027 31.9825 106.197 31.9328 106.352Z" fill="white"/>
<path id="Path_136" d="M30.1763 107.274C30.1265 107.429 29.9691 107.512 29.8246 107.458C29.68 107.404 29.6032 107.235 29.6529 107.079C29.7026 106.924 29.8601 106.841 30.0045 106.895C30.1484 106.949 30.226 107.118 30.1763 107.274Z" fill="white"/>
<path id="Path_137" d="M28.4197 108.196C28.37 108.351 28.2125 108.434 28.0687 108.38C27.9234 108.326 27.8466 108.157 27.8969 108.001C27.9461 107.846 28.1036 107.763 28.248 107.817C28.3924 107.87 28.4695 108.04 28.4197 108.196Z" fill="white"/>
<path id="Path_138" d="M26.6632 109.118C26.6134 109.273 26.456 109.356 26.3121 109.302C26.1669 109.248 26.09 109.079 26.1403 108.923C26.1895 108.768 26.347 108.685 26.4914 108.739C26.6358 108.792 26.7129 108.962 26.6632 109.118Z" fill="white"/>
<path id="Path_139" d="M32.7914 108.247C32.742 108.403 32.5842 108.485 32.4403 108.431C32.2954 108.378 32.218 108.207 32.2683 108.051C32.3175 107.896 32.475 107.813 32.6194 107.867C32.7638 107.921 32.8411 108.091 32.7914 108.247Z" fill="white"/>
<path id="Path_140" d="M31.0349 109.169C30.9854 109.325 30.8277 109.407 30.6832 109.353C30.5388 109.3 30.4615 109.129 30.5112 108.974C30.5609 108.818 30.7184 108.736 30.8628 108.789C31.0067 108.843 31.0846 109.013 31.0349 109.169Z" fill="white"/>
<path id="Path_141" d="M29.2786 110.09C29.2291 110.246 29.0714 110.328 28.9275 110.275C28.7826 110.221 28.7052 110.051 28.7555 109.895C28.8047 109.74 28.9622 109.657 29.1066 109.711C29.251 109.764 29.3283 109.935 29.2786 110.09Z" fill="white"/>
<path id="Path_142" d="M27.522 111.012C27.4725 111.168 27.3148 111.25 27.1709 111.196C27.026 111.143 26.9486 110.973 26.9989 110.817C27.0481 110.662 27.2056 110.579 27.35 110.633C27.4944 110.686 27.5717 110.857 27.522 111.012Z" fill="white"/>
<path id="Path_143" d="M33.65 110.141C33.6002 110.296 33.4428 110.379 33.2989 110.325C33.1537 110.271 33.0769 110.102 33.1271 109.946C33.1763 109.791 33.3338 109.708 33.4782 109.762C33.6226 109.815 33.6997 109.985 33.65 110.141Z" fill="white"/>
<path id="Path_144" d="M31.8933 111.062C31.8436 111.218 31.6861 111.301 31.5417 111.247C31.397 111.193 31.3202 111.023 31.3699 110.868C31.4196 110.713 31.5771 110.63 31.7215 110.683C31.8654 110.737 31.943 110.907 31.8933 111.062Z" fill="white"/>
<path id="Path_145" d="M30.1369 111.984C30.0872 112.14 29.9297 112.222 29.7858 112.169C29.6406 112.115 29.5638 111.945 29.6141 111.79C29.6633 111.635 29.8207 111.552 29.9652 111.605C30.1096 111.659 30.1866 111.829 30.1369 111.984Z" fill="white"/>
<path id="Path_146" d="M28.3804 112.906C28.3307 113.062 28.1732 113.144 28.0294 113.091C27.8841 113.037 27.8073 112.867 27.8576 112.712C27.9068 112.556 28.0643 112.474 28.2087 112.527C28.3531 112.581 28.4302 112.751 28.3804 112.906Z" fill="white"/>
<path id="Path_147" d="M34.5087 112.035C34.4592 112.191 34.3015 112.273 34.1576 112.22C34.0126 112.166 33.9358 111.997 33.9858 111.841C34.035 111.686 34.1925 111.603 34.3369 111.656C34.4813 111.71 34.5584 111.88 34.5087 112.035Z" fill="white"/>
<path id="Path_148" d="M32.7521 112.957C32.7027 113.113 32.5449 113.195 32.4005 113.142C32.2561 113.088 32.1793 112.919 32.2288 112.763C32.2785 112.607 32.436 112.525 32.5804 112.578C32.7243 112.632 32.8019 112.802 32.7521 112.957Z" fill="white"/>
<path id="Path_149" d="M30.9956 113.879C30.9462 114.035 30.7884 114.117 30.6445 114.063C30.4996 114.01 30.4228 113.841 30.4728 113.684C30.522 113.529 30.6794 113.447 30.8239 113.5C30.9683 113.554 31.0454 113.724 30.9956 113.879Z" fill="white"/>
<path id="Path_150" d="M29.2392 114.801C29.1897 114.957 29.032 115.039 28.8881 114.985C28.7431 114.932 28.6663 114.763 28.7163 114.606C28.7655 114.451 28.923 114.368 29.0674 114.422C29.2118 114.476 29.2889 114.646 29.2392 114.801Z" fill="white"/>
<path id="Path_151" d="M35.3674 113.93C35.3177 114.085 35.1602 114.168 35.0163 114.114C34.8713 114.061 34.7943 113.891 34.8445 113.735C34.8937 113.58 35.0512 113.497 35.1956 113.551C35.3401 113.604 35.4171 113.774 35.3674 113.93Z" fill="white"/>
<path id="Path_152" d="M33.6107 114.852C33.561 115.007 33.4035 115.09 33.2591 115.036C33.1147 114.983 33.0376 114.813 33.0873 114.657C33.1371 114.502 33.2945 114.419 33.4389 114.473C33.5828 114.527 33.6604 114.696 33.6107 114.852Z" fill="white"/>
<path id="Path_153" d="M31.8543 115.773C31.8046 115.929 31.6471 116.012 31.5032 115.958C31.3583 115.905 31.2812 115.734 31.3315 115.579C31.3807 115.424 31.5381 115.341 31.6826 115.395C31.827 115.448 31.9041 115.618 31.8543 115.773Z" fill="white"/>
<path id="Path_154" d="M30.0979 116.696C30.0481 116.851 29.8907 116.934 29.7468 116.88C29.6018 116.827 29.5247 116.657 29.575 116.501C29.6242 116.346 29.7817 116.263 29.9261 116.317C30.0705 116.37 30.1476 116.54 30.0979 116.696Z" fill="white"/>
<path id="Path_155" d="M36.2259 115.824C36.1762 115.979 36.0187 116.062 35.8748 116.008C35.7296 115.954 35.6528 115.785 35.7031 115.629C35.7522 115.474 35.9097 115.391 36.0541 115.445C36.1986 115.498 36.2756 115.668 36.2259 115.824Z" fill="white"/>
<path id="Path_156" d="M34.4694 116.746C34.4196 116.901 34.2622 116.984 34.1177 116.93C33.973 116.876 33.8962 116.707 33.946 116.551C33.9957 116.396 34.1532 116.313 34.2976 116.367C34.4415 116.421 34.5191 116.59 34.4694 116.746Z" fill="white"/>
<path id="Path_157" d="M32.7128 117.668C32.6631 117.823 32.5056 117.906 32.3618 117.852C32.2165 117.798 32.1397 117.629 32.19 117.473C32.2392 117.318 32.3967 117.235 32.5411 117.289C32.6855 117.342 32.7626 117.512 32.7128 117.668Z" fill="white"/>
<path id="Path_158" d="M30.9562 118.59C30.9065 118.745 30.749 118.828 30.6052 118.774C30.4599 118.72 30.3831 118.551 30.4334 118.395C30.4826 118.24 30.6401 118.157 30.7845 118.211C30.9289 118.264 31.006 118.434 30.9562 118.59Z" fill="white"/>
<path id="Path_159" d="M37.0845 117.718C37.035 117.874 36.8773 117.956 36.7334 117.903C36.5885 117.849 36.5114 117.679 36.5617 117.524C36.6108 117.369 36.7683 117.286 36.9127 117.339C37.0572 117.393 37.1342 117.563 37.0845 117.718Z" fill="white"/>
<path id="Path_160" d="M35.3279 118.64C35.2785 118.796 35.1207 118.879 34.9763 118.825C34.8319 118.771 34.7548 118.601 34.8046 118.446C34.8543 118.291 35.0118 118.208 35.1562 118.262C35.3001 118.315 35.3777 118.485 35.3279 118.64Z" fill="white"/>
<path id="Path_161" d="M33.5716 119.562C33.5221 119.718 33.3644 119.8 33.2205 119.746C33.0755 119.693 32.9984 119.523 33.0487 119.367C33.0979 119.212 33.2554 119.13 33.3998 119.183C33.5442 119.237 33.6213 119.407 33.5716 119.562Z" fill="white"/>
<path id="Path_162" d="M31.8151 120.484C31.7656 120.64 31.6079 120.722 31.464 120.668C31.319 120.615 31.242 120.445 31.2922 120.289C31.3414 120.134 31.4989 120.052 31.6433 120.105C31.7877 120.159 31.8648 120.329 31.8151 120.484Z" fill="white"/>
<path id="Path_163" d="M37.9429 119.612C37.8932 119.768 37.7357 119.85 37.5919 119.797C37.4466 119.743 37.3698 119.573 37.4201 119.418C37.4693 119.263 37.6268 119.18 37.7712 119.233C37.9156 119.287 37.9927 119.457 37.9429 119.612Z" fill="white"/>
<path id="Path_164" d="M36.1864 120.534C36.1367 120.69 35.9792 120.772 35.8348 120.719C35.6901 120.665 35.6133 120.495 35.663 120.34C35.7127 120.185 35.8702 120.102 36.0146 120.155C36.1585 120.209 36.2361 120.379 36.1864 120.534Z" fill="white"/>
<path id="Path_165" d="M34.43 121.456C34.3803 121.612 34.2228 121.694 34.0789 121.641C33.9337 121.587 33.8569 121.417 33.9072 121.262C33.9563 121.107 34.1138 121.024 34.2582 121.077C34.4027 121.131 34.4797 121.301 34.43 121.456Z" fill="white"/>
<path id="Path_166" d="M32.6735 122.378C32.6238 122.534 32.4663 122.616 32.3224 122.562C32.1772 122.509 32.1004 122.339 32.1507 122.184C32.1999 122.028 32.3574 121.946 32.5018 121.999C32.6462 122.053 32.7233 122.223 32.6735 122.378Z" fill="white"/>
<path id="Path_167" d="M38.8017 121.507C38.7522 121.663 38.5945 121.745 38.4506 121.691C38.3056 121.638 38.2285 121.468 38.2788 121.312C38.328 121.157 38.4855 121.075 38.6299 121.128C38.7743 121.182 38.8514 121.352 38.8017 121.507Z" fill="white"/>
<path id="Path_168" d="M37.0451 122.429C36.9957 122.585 36.8379 122.667 36.6935 122.614C36.5491 122.56 36.472 122.39 36.5217 122.235C36.5715 122.079 36.7289 121.997 36.8734 122.05C37.0172 122.104 37.0949 122.274 37.0451 122.429Z" fill="white"/>
<path id="Path_169" d="M35.2887 123.351C35.2393 123.507 35.0815 123.589 34.9376 123.535C34.7927 123.482 34.7156 123.312 34.7659 123.156C34.8151 123.001 34.9725 122.918 35.117 122.972C35.2614 123.025 35.3385 123.195 35.2887 123.351Z" fill="white"/>
<path id="Path_170" d="M39.6607 123.402C39.611 123.558 39.4535 123.64 39.3096 123.586C39.1644 123.533 39.0876 123.363 39.1379 123.207C39.1871 123.052 39.3445 122.97 39.489 123.023C39.6334 123.077 39.7105 123.247 39.6607 123.402Z" fill="white"/>
<path id="Path_171" d="M37.9042 124.324C37.8544 124.48 37.697 124.562 37.5525 124.509C37.4079 124.455 37.3311 124.285 37.3808 124.13C37.4305 123.974 37.588 123.892 37.7324 123.945C37.8763 123.999 37.9539 124.169 37.9042 124.324Z" fill="white"/>
<path id="Path_172" d="M36.1477 125.246C36.0979 125.402 35.9404 125.484 35.7966 125.43C35.6513 125.377 35.5745 125.207 35.6248 125.051C35.674 124.896 35.8315 124.814 35.9759 124.867C36.1203 124.921 36.1974 125.091 36.1477 125.246Z" fill="white"/>
<path id="Path_173" d="M38.7626 126.218C38.7132 126.374 38.5554 126.456 38.411 126.403C38.2666 126.349 38.1895 126.179 38.2393 126.024C38.289 125.868 38.4465 125.786 38.5909 125.839C38.7348 125.893 38.8124 126.063 38.7626 126.218Z" fill="white"/>
<path id="Path_174" d="M37.0061 127.14C36.9567 127.296 36.7989 127.378 36.655 127.324C36.5101 127.271 36.433 127.101 36.4833 126.945C36.5325 126.79 36.6899 126.708 36.8344 126.761C36.9788 126.815 37.0558 126.985 37.0061 127.14Z" fill="white"/>
<path id="Path_175" d="M37.8651 129.035C37.8153 129.191 37.6579 129.273 37.514 129.219C37.3688 129.166 37.2919 128.996 37.3422 128.84C37.3914 128.685 37.5489 128.603 37.6933 128.656C37.8377 128.71 37.9148 128.88 37.8651 129.035Z" fill="white"/>
<path id="Path_176" d="M104.379 115.771L104.01 115.965L103.771 115.439L104.14 115.246L103.821 114.542L104.383 114.247L104.702 114.951L105.216 114.681L105.455 115.207L104.94 115.477L105.356 116.395C105.381 116.451 105.409 116.499 105.441 116.54C105.472 116.582 105.51 116.611 105.552 116.628C105.616 116.659 105.685 116.655 105.759 116.616C105.808 116.59 105.844 116.564 105.867 116.538C105.891 116.513 105.911 116.484 105.929 116.452L106.332 116.908C106.282 116.977 106.222 117.039 106.155 117.096C106.086 117.153 106.008 117.206 105.915 117.254C105.81 117.31 105.706 117.341 105.605 117.348C105.505 117.356 105.411 117.343 105.325 117.309C105.125 117.236 104.965 117.066 104.846 116.802L104.379 115.771Z" fill="#F7F7F7"/>
<path id="Shape_13" fill-rule="evenodd" clip-rule="evenodd" d="M107.76 115.816L107.796 115.796L107.896 116.028L108.48 115.706L107.915 114.39C107.781 114.078 107.588 113.891 107.339 113.832C107.089 113.772 106.793 113.838 106.449 114.028C106.042 114.253 105.784 114.577 105.675 114.999L106.229 115.052C106.298 114.804 106.435 114.623 106.639 114.51C106.778 114.433 106.91 114.407 107.036 114.431C107.163 114.455 107.251 114.526 107.301 114.642L107.329 114.709C107.259 114.719 107.172 114.738 107.069 114.767C106.966 114.797 106.842 114.852 106.697 114.932C106.568 115.003 106.455 115.086 106.36 115.182C106.264 115.277 106.191 115.38 106.138 115.49C106.084 115.601 106.055 115.714 106.049 115.83C106.042 115.946 106.063 116.061 106.112 116.174C106.16 116.285 106.224 116.374 106.306 116.443C106.388 116.512 106.481 116.559 106.584 116.583C106.688 116.607 106.797 116.61 106.915 116.591C107.032 116.572 107.148 116.532 107.262 116.468C107.416 116.383 107.529 116.283 107.602 116.17C107.674 116.056 107.727 115.938 107.76 115.816ZM107.282 115.206C107.362 115.186 107.444 115.172 107.527 115.166C107.554 115.231 107.569 115.3 107.569 115.374C107.57 115.448 107.556 115.521 107.53 115.592C107.504 115.662 107.464 115.729 107.411 115.793C107.358 115.857 107.293 115.91 107.215 115.953C107.12 116.005 107.025 116.025 106.93 116.013C106.834 116 106.768 115.95 106.73 115.862C106.692 115.774 106.698 115.679 106.748 115.577C106.797 115.476 106.892 115.386 107.032 115.309C107.118 115.262 107.201 115.228 107.282 115.206Z" fill="#F7F7F7"/>
<path id="Path_177" d="M107.399 112.223L107.961 111.928L109.484 115.289L108.922 115.584L107.399 112.223Z" fill="#F7F7F7"/>
<path id="Path_178" d="M108.441 111.676L109.003 111.381L110.526 114.742L109.964 115.037L108.441 111.676Z" fill="#F7F7F7"/>
<path id="Shape_14" fill-rule="evenodd" clip-rule="evenodd" d="M111.466 111.493C111.299 111.514 111.129 111.572 110.958 111.667C110.787 111.761 110.643 111.876 110.526 112.013C110.408 112.15 110.319 112.298 110.259 112.458C110.2 112.617 110.171 112.785 110.174 112.96C110.176 113.135 110.214 113.307 110.287 113.476C110.359 113.646 110.456 113.785 110.575 113.896C110.695 114.006 110.829 114.083 110.977 114.128C111.124 114.174 111.282 114.186 111.449 114.165C111.616 114.144 111.786 114.087 111.957 113.992C112.128 113.898 112.272 113.782 112.39 113.645C112.508 113.508 112.596 113.36 112.656 113.2C112.716 113.04 112.745 112.873 112.742 112.698C112.739 112.523 112.701 112.351 112.629 112.182C112.556 112.012 112.46 111.873 112.34 111.763C112.221 111.652 112.087 111.574 111.939 111.529C111.791 111.484 111.634 111.472 111.466 111.493ZM111.927 113.291C111.868 113.358 111.801 113.413 111.726 113.454C111.648 113.497 111.568 113.524 111.486 113.534C111.405 113.544 111.326 113.538 111.249 113.514C111.172 113.49 111.101 113.448 111.036 113.388C110.971 113.328 110.917 113.249 110.875 113.151C110.833 113.052 110.811 112.956 110.81 112.861C110.808 112.766 110.823 112.677 110.854 112.594C110.884 112.51 110.929 112.435 110.985 112.369C111.043 112.302 111.111 112.247 111.189 112.204C111.264 112.162 111.343 112.136 111.426 112.125C111.509 112.114 111.589 112.12 111.666 112.144C111.744 112.168 111.814 112.209 111.879 112.27C111.945 112.329 111.997 112.408 112.04 112.507C112.082 112.605 112.104 112.702 112.105 112.797C112.107 112.891 112.093 112.981 112.061 113.064C112.03 113.148 111.986 113.223 111.927 113.291Z" fill="#F7F7F7"/>
<path id="Path_179" d="M113.794 113.027C113.691 113.081 113.585 113.089 113.477 113.05C113.369 113.011 113.29 112.938 113.241 112.829C113.192 112.721 113.187 112.609 113.225 112.495C113.264 112.381 113.335 112.297 113.438 112.243C113.541 112.189 113.645 112.181 113.751 112.219C113.856 112.257 113.934 112.331 113.983 112.44C114.032 112.548 114.038 112.66 114.002 112.775C113.966 112.889 113.897 112.973 113.794 113.027Z" fill="#F7F7F7"/>
<path id="Path_180" d="M113.565 110.3L114.093 110.023L114.23 110.323L114.264 110.305C114.278 110.158 114.326 110.02 114.407 109.892C114.49 109.764 114.599 109.665 114.736 109.593C114.896 109.508 115.05 109.478 115.195 109.503C115.34 109.527 115.463 109.587 115.563 109.682C115.576 109.531 115.624 109.383 115.706 109.237C115.789 109.091 115.915 108.974 116.087 108.883C116.216 108.816 116.337 108.78 116.452 108.776C116.567 108.772 116.674 108.794 116.772 108.843C116.87 108.893 116.962 108.966 117.045 109.063C117.128 109.161 117.2 109.277 117.261 109.412L117.919 110.862L117.357 111.157L116.75 109.819C116.609 109.506 116.42 109.411 116.185 109.535C116.112 109.573 116.054 109.626 116.014 109.692C115.972 109.758 115.946 109.832 115.936 109.913C115.924 109.994 115.928 110.082 115.944 110.178C115.961 110.274 115.991 110.371 116.035 110.467L116.542 111.585L115.98 111.88L115.374 110.542C115.232 110.229 115.038 110.137 114.792 110.266C114.721 110.303 114.666 110.354 114.628 110.419C114.59 110.483 114.566 110.556 114.557 110.637C114.547 110.717 114.551 110.805 114.57 110.899C114.588 110.994 114.62 111.091 114.663 111.188L115.17 112.305L114.608 112.6L113.565 110.3Z" fill="#F7F7F7"/>
<path id="Path_181" d="M117.031 108.48L117.67 108.145L118.856 109.336L118.886 109.32L118.749 107.578L119.384 107.245L119.522 110.02L118.969 110.311L117.031 108.48Z" fill="#F7F7F7"/>
</g>
</g>
</svg>
